# xmcd
#
# Track frame offsets: 
#        150
#        12330
#        23199
#        39294
#        48831
#        58594
#        69218
#        79393
#        92616
#        103241
#        114689
#        122993
#        136236
#        147537
#        154514
#        167116
#        179736
#        191912
#        201803
#        212155
#        224035
#        237073
#        248266
#        259542
#        271098
#        280879
#        289994
#        301854
#        310169
#        318649
#
# Disc length: 4375 seconds
#
# Revision: 0
# Processed by: cddbd v1.5.2PL0 Copyright (c) Steve Scherf et al.
# Submitted via: ExactAudioCopy v0.95b3
#
DISCID=bd11151e
DTITLE=Dave Clark Five  - MFR©   True Stereo   FLAC
DYEAR=1900
DGENRE=
TTITLE0=01 - Glad All Over
TTITLE1=02 - Can't You See That She's Mine
TTITLE2=03 - I Need Love
TTITLE3=04 - Good Love Is So Hard To Find
TTITLE4=05 - Try Too Hard
TTITLE5=06 - Because
TTITLE6=07 - Til The Right One Comes Along
TTITLE7=08 - Whenever You're Around
TTITLE8=09 - Remember It's Me
TTITLE9=10 - When I'm Alone
TTITLE10=11 - Having A Wild Weekend
TTITLE11=12 - Sitting Here Baby
TTITLE12=13 - Concentration Baby
TTITLE13=14 - Please Tell Me Why
TTITLE14=15 - Inside And Out
TTITLE15=16 - Come Home
TTITLE16=17 - I'll Be Yours My Love
TTITLE17=18 - Forever And A Day
TTITLE18=19 - Bernadette
TTITLE19=20 - Hurting Inside
TTITLE20=21 - Here Comes Summer
TTITLE21=22 - Julia
TTITLE22=23 - I Am On My Own
TTITLE23=24 - Red And Blue
TTITLE24=25 - Hold On Tight
TTITLE25=26 - Lost In His Dreams
TTITLE26=27 - I'll Do The Best I Can
TTITLE27=28 - Nineteen Days
TTITLE28=29 - Pictures Of You
TTITLE29=30 - Pick Up Your Phone
EXTD=
EXTT0=
EXTT1=
EXTT2=
EXTT3=
EXTT4=
EXTT5=
EXTT6=
EXTT7=
EXTT8=
EXTT9=
EXTT10=
EXTT11=
EXTT12=
EXTT13=
EXTT14=
EXTT15=
EXTT16=
EXTT17=
EXTT18=
EXTT19=
EXTT20=
EXTT21=
EXTT22=
EXTT23=
EXTT24=
EXTT25=
EXTT26=
EXTT27=
EXTT28=
EXTT29=
PLAYORDER=
